HIERARCHY
ROOT Hips
{
    OFFSET 0.000000 0.000000 0.000000
    CHANNELS 6 Xposition Yposition Zposition Zrotation Xrotation Yrotation
    JOINT Spine
    {
        OFFSET -0.000000 8.185774 0.000000
        CHANNELS 3 Zrotation Xrotation Yrotation
        JOINT Spine1
        {
            OFFSET -0.000000 23.949169 0.000000
            CHANNELS 3 Zrotation Xrotation Yrotation
            JOINT Neck
            {
                OFFSET -0.000000 23.850817 2.168256
                CHANNELS 3 Zrotation Xrotation Yrotation
                JOINT Head
                {
                    OFFSET -0.000000 13.975711 -1.996530
                    CHANNELS 3 Zrotation Xrotation Yrotation
                    End Site
                    {
                        OFFSET -0.000000 24.956627 0.000000
                    }
                }
            }
            JOINT LeftShoulder
            {
                OFFSET 3.979389 22.161966 -0.249083
                CHANNELS 3 Zrotation Xrotation Yrotation
                JOINT LeftArm
                {
                    OFFSET 10.812937 0.000000 0.000000
                    CHANNELS 3 Zrotation Xrotation Yrotation
                    JOINT LeftForeArm
                    {
                        OFFSET 31.697208 0.000000 0.000000
                        CHANNELS 3 Zrotation Xrotation Yrotation
                        JOINT LeftHand
                        {
                            OFFSET 27.047384 0.000000 0.000000
                            CHANNELS 3 Zrotation Xrotation Yrotation
                            End Site
                            {
                                OFFSET 14.973977 0.000000 0.000000
                            }
                        }
                    }
                }
            }
            JOINT RightShoulder
            {
                OFFSET -4.006446 22.161966 -0.249083
                CHANNELS 3 Zrotation Xrotation Yrotation
                JOINT RightArm
                {
                    OFFSET -10.812937 0.000000 0.000000
                    CHANNELS 3 Zrotation Xrotation Yrotation
                    JOINT RightForeArm
                    {
                        OFFSET -31.697208 0.000000 0.000000
                        CHANNELS 3 Zrotation Xrotation Yrotation
                        JOINT RightHand
                        {
                            OFFSET -27.047384 0.000000 0.000000
                            CHANNELS 3 Zrotation Xrotation Yrotation
                            End Site
                            {
                                OFFSET -14.973977 0.000000 0.000000
                            }
                        }
                    }
                }
            }
        }
    }
    JOINT LeftUpLeg
    {
        OFFSET 9.982651 0.000000 0.000000
        CHANNELS 3 Zrotation Xrotation Yrotation
        JOINT LeftLeg
        {
            OFFSET -0.000000 -38.511635 0.000000
            CHANNELS 3 Zrotation Xrotation Yrotation
            JOINT LeftFoot
            {
                OFFSET -0.000000 -44.789326 0.000000
                CHANNELS 3 Zrotation Xrotation Yrotation
                JOINT LeftToeBase
                {
                    OFFSET -0.000000 -6.488723 14.973977
                    CHANNELS 3 Zrotation Xrotation Yrotation
                    End Site
                    {
                        OFFSET -0.000000 0.000000 3.993060
                    }
                }
            }
        }
    }
    JOINT RightUpLeg
    {
        OFFSET -9.982651 0.000000 0.000000
        CHANNELS 3 Zrotation Xrotation Yrotation
        JOINT RightLeg
        {
            OFFSET -0.000000 -38.511635 0.000000
            CHANNELS 3 Zrotation Xrotation Yrotation
            JOINT RightFoot
            {
                OFFSET -0.000000 -44.789326 0.000000
                CHANNELS 3 Zrotation Xrotation Yrotation
                JOINT RightToeBase
                {
                    OFFSET -0.000000 -6.488723 14.973977
                    CHANNELS 3 Zrotation Xrotation Yrotation
                    End Site
                    {
                        OFFSET -0.000000 0.000000 3.993060
                    }
                }
            }
        }
    }
}
MOTION
Frames:    12
Frame Time:    0.008333
-0.196024    101.323723    -58.789871    -5.649224    -0.329903    -164.929810    -6.560571    -5.001543    -1.745820    6.831601    2.732914    -1.622226    -5.214583    22.722315    -19.454500    6.996550    31.076702    -21.636112    6.978528    3.977687    -1.952634    -44.846764    49.527645    -28.921719    23.315134    -23.700792    -95.098572    -22.183514    -1.299062    16.168480    -10.716588    8.095162    -5.769926    84.733543    39.297031    -20.946779    0.085143    1.475506    23.436029    -8.422034    2.722645    -17.062054    9.616612    -65.366158    15.951553    175.832169    34.240562    175.330261    13.541227    -21.721884    17.971365    0.000000    0.000000    0.000000    -8.872559    -17.846884    -16.627436    -2.815087    21.984720    10.429671    14.279375    27.433245    -11.147765    0.000000    0.000000    0.000000    
-0.149006    99.788643    -60.236191    -6.211748    -0.218210    -165.512482    -6.701559    -4.579541    -1.237664    6.418468    2.033429    -1.083506    -5.855981    23.058571    -19.057114    7.214601    30.418854    -21.264826    6.799020    4.168700    -1.929359    -45.754185    49.582668    -26.872103    23.450260    -23.053785    -94.350349    -22.088436    -0.676762    15.677705    -10.663086    8.082705    -5.859140    85.267395    39.296944    -20.750694    -0.284724    1.353557    23.677282    -7.912319    2.589148    -16.890728    11.476642    -67.249863    18.026249    175.891922    37.180920    179.943863    10.984990    -22.691805    12.922902    0.000000    0.000000    0.000000    -9.348632    -17.715673    -17.071167    -2.487081    25.538967    10.464729    9.228228    19.901672    -7.985045    0.000000    0.000000    0.000000    
-0.113161    98.213326    -61.628300    -6.800177    -0.112165    -166.269165    -6.721261    -3.625441    -0.713242    5.868390    0.360852    -0.518950    -6.727078    24.105345    -18.457184    7.663198    29.272142    -20.740660    6.283074    4.803575    -1.704452    -46.410938    49.615456    -24.790236    23.183228    -22.153124    -93.593193    -21.336905    -0.196339    15.342981    -10.348197    8.254788    -5.632703    85.681984    39.155502    -20.694708    -0.558895    0.709175    23.834629    -7.505962    1.944795    -16.918928    13.824875    -69.042801    20.601818    176.064911    40.515041    -175.746582    8.191007    -22.968220    7.570399    0.000000    0.000000    0.000000    -9.950818    -17.611759    -17.485943    -2.130029    28.902584    11.484901    6.025181    12.075337    -7.281671    0.000000    0.000000    0.000000    
-0.087200    96.676125    -62.901966    -7.334199    -0.294474    -167.165497    -7.075474    -2.943483    -0.172036    5.967884    -1.222655    0.079750    -7.605497    25.032400    -17.903515    7.543044    27.736506    -20.168242    5.312551    5.326118    -1.409190    -47.159660    49.518219    -22.660511    23.096478    -21.154171    -92.425606    -20.852537    0.458439    14.587098    -10.572904    8.175959    -5.043607    86.264061    38.472740    -20.784075    -0.583004    0.364538    23.798489    -8.258634    1.711047    -16.828890    16.800877    -70.839737    23.736485    176.432129    44.066551    -172.513626    5.887768    -22.811911    2.733720    0.000000    0.000000    0.000000    -10.576065    -17.808050    -17.698412    -1.663881    31.253332    13.513927    3.490575    6.255043    -8.824899    0.000000    0.000000    0.000000    
-0.073511    95.138832    -64.100327    -7.864696    -0.684901    -168.279129    -7.340848    -2.441857    0.524787    5.705558    -2.705096    0.816177    -8.291180    25.460876    -17.512486    7.687522    27.134832    -19.824877    4.752697    5.585687    -1.044437    -48.187714    49.427574    -20.707140    22.504953    -19.775537    -91.210037    -20.006811    0.903309    14.279510    -10.178879    8.461967    -4.927230    86.306076    38.467857    -20.348316    -1.098736    -0.038744    23.723198    -7.579169    1.279968    -16.312550    20.794380    -72.452766    27.925232    176.898361    47.475586    -173.904617    5.210296    -22.323925    2.664375    0.000000    0.000000    0.000000    -11.224948    -18.293880    -17.219374    -0.842856    33.400887    14.976062    0.899468    0.842511    -10.861749    0.000000    0.000000    0.000000    
-0.042910    93.670273    -65.264687    -8.242702    -1.298554    -169.508224    -7.351153    -2.358092    0.914336    5.475818    -3.639587    1.239851    -9.699101    25.264853    -16.687811    7.717044    26.402048    -19.017872    3.908676    5.615524    0.089894    -49.212971    49.331848    -18.541927    21.745731    -18.551577    -89.838776    -19.394802    0.975971    13.766741    -10.195038    8.627479    -4.537342    86.291779    38.904705    -19.230822    -1.387976    -0.662094    23.394506    -7.533216    0.687943    -16.035297    25.912317    -73.885712    32.968491    177.790451    51.166183    -175.747314    4.616449    -21.723680    2.735790    0.000000    0.000000    0.000000    -11.656722    -19.093378    -17.458647    -0.651724    35.459476    17.272373    -2.069352    -4.119374    -12.947441    0.000000    0.000000    0.000000    
0.013165    92.361961    -66.345131    -8.408860    -2.224023    -170.873932    -6.929842    -2.577382    1.235429    4.638288    -4.708654    1.582252    -10.847572    25.353384    -15.781979    7.932839    25.414389    -18.127127    3.029666    5.877726    1.506269    -49.980236    48.552216    -16.673164    20.963669    -16.711958    -87.963638    -18.864876    1.570800    12.935143    -9.300621    8.419390    -3.551171    85.671066    38.328171    -18.272215    -1.428364    -1.256000    22.732958    -7.184014    0.027542    -15.774136    32.542599    -75.043549    38.963627    179.667084    55.112083    -178.529755    3.629627    -21.100674    2.842900    0.000000    0.000000    0.000000    -11.685513    -20.397675    -17.238382    -0.779261    37.459778    19.218508    -4.504075    -8.434601    -15.041489    0.000000    0.000000    0.000000    
0.106535    91.243103    -67.282158    -8.282457    -3.427627    -172.245255    -5.911803    -2.945447    1.322658    3.623256    -5.918544    1.662093    -12.843477    25.703094    -14.356253    8.581627    23.945526    -16.797375    1.766522    6.263802    2.918560    -50.801903    47.460934    -14.161120    20.258226    -15.335581    -85.830894    -18.652069    1.722195    11.945094    -8.654679    8.457461    -2.504938    85.228065    38.277271    -16.763821    -1.958458    -1.852002    21.739283    -7.159918    -0.487692    -15.700437    40.049541    -75.960617    45.500660    -177.566788    59.336487    178.671432    2.275930    -20.300358    2.501422    0.000000    0.000000    0.000000    -11.125710    -22.390266    -17.552883    -2.193013    39.659260    21.500780    -6.365851    -11.882430    -16.487558    0.000000    0.000000    0.000000    
0.197800    90.237061    -68.302299    -7.993830    -4.323110    -173.683029    -5.267939    -3.833666    1.621379    3.631063    -5.533822    1.973320    -14.424069    25.019171    -13.522001    8.679255    22.610399    -15.869438    0.541993    6.168918    3.887424    -52.021660    45.922531    -11.933814    19.336044    -13.874682    -83.563354    -18.368160    1.741802    11.261406    -8.776072    8.074956    -1.400684    84.769974    37.550514    -15.186660    -2.249938    -2.255419    21.221731    -8.026598    -0.710012    -15.922421    46.743038    -76.074875    50.689095    -172.982132    63.601067    173.955109    0.676805    -19.422527    2.608636    0.000000    0.000000    0.000000    -10.051997    -24.078585    -17.217409    -3.712664    41.544235    23.181561    -8.145160    -14.340305    -17.626364    0.000000    0.000000    0.000000    
0.309737    89.357315    -69.329536    -7.599640    -4.910635    -174.946777    -4.555928    -4.228183    2.087711    3.462916    -5.340699    2.417499    -14.709736    24.197716    -13.159397    7.807212    21.352522    -15.244729    -0.275258    6.165305    4.482440    -53.296207    43.987770    -10.150643    18.368670    -11.959797    -80.863197    -17.917259    2.232615    10.169368    -8.498795    7.742049    -0.937527    84.454941    37.987900    -13.934242    -2.908471    -3.087536    20.715513    -7.887253    -1.446677    -16.002846    51.224125    -75.786430    53.779781    -167.356033    67.777496    168.428650    -1.617994    -18.673298    2.563911    0.000000    0.000000    0.000000    -8.818518    -25.503639    -16.413797    -5.084124    43.551781    24.512756    -9.714172    -16.154398    -18.735386    0.000000    0.000000    0.000000    
0.413406    88.642059    -70.356346    -7.320300    -5.313066    -176.113190    -4.334568    -4.743697    2.333710    4.308935    -4.181256    2.670660    -16.303110    22.721640    -12.726764    7.732605    20.031174    -14.577521    -1.513117    5.814138    5.155915    -54.742233    42.140217    -8.263798    17.565187    -10.513895    -77.900841    -17.051754    2.415611    9.302670    -9.674427    6.933896    -0.505318    84.070404    37.008034    -11.733098    -2.950734    -2.842673    19.816483    -8.269137    -1.177648    -15.814355    52.801788    -75.228493    54.126446    -158.475906    72.015053    160.685806    -3.468601    -17.543777    2.213969    0.000000    0.000000    0.000000    -7.740550    -26.936058    -14.947184    -6.077266    45.949566    25.465452    -10.272733    -17.298754    -19.767023    0.000000    0.000000    0.000000    
0.500197    88.077713    -71.423050    -7.011967    -5.259113    -176.744919    -4.034588    -4.656631    2.446519    4.560853    -3.433093    2.747324    -16.870577    21.878540    -12.483089    7.623812    18.504667    -14.105208    -2.151122    5.846364    5.775703    -56.052670    40.345852    -7.098472    16.594540    -8.918095    -74.746284    -15.691795    2.650022    8.789910    -9.671176    6.303835    0.081645    83.418060    36.703270    -10.324943    -3.280681    -3.043865    19.326401    -7.782481    -1.426254    -15.490283    50.798447    -74.670631    51.060074    -146.286163    75.737274    149.247787    -5.121553    -16.470678    2.179644    0.000000    0.000000    0.000000    -6.994803    -27.633112    -12.480485    -5.069293    48.383499    24.178612    -10.593462    -17.955421    -20.601265    0.000000    0.000000    0.000000    
